<?xml version="1.0" standalone="no"?>
<!DOCTYPE svg PUBLIC "-//W3C//DTD SVG 20010904//EN"
 "http://www.w3.org/TR/2001/REC-SVG-20010904/DTD/svg10.dtd">
<svg version="1.0" xmlns="http://www.w3.org/2000/svg"
 width="337.000000pt" height="484.000000pt" viewBox="0 0 337.000000 484.000000"
 preserveAspectRatio="xMidYMid meet">

<g transform="translate(0.000000,484.000000) scale(0.100000,-0.100000)"
fill="#000000" stroke="none">
<path d="M1324 3795 c-231 -50 -394 -253 -394 -489 l0 -83 -52 -24 c-70 -32
-155 -96 -229 -170 -208 -212 -320 -521 -321 -884 0 -110 4 -156 21 -218 48
-180 160 -331 297 -398 65 -32 74 -34 174 -34 127 0 174 18 197 74 14 32 14
49 -2 168 -29 217 -6 365 86 553 44 88 65 117 133 185 88 88 182 142 291 170
76 19 234 19 310 0 239 -61 417 -257 476 -525 24 -109 29 -292 10 -405 -21
-125 17 -204 105 -221 64 -12 167 1 228 29 111 51 219 181 280 337 156 398 57
839 -259 1155 -49 50 -127 115 -172 145 l-83 55 0 50 c0 160 -59 304 -164 403
-73 68 -148 107 -244 128 -91 19 -600 18 -688 -1z"/>
<path d="M1095 1990 c9 -17 34 -44 57 -60 33 -24 51 -30 94 -30 30 0 74 5 99
12 43 12 68 9 165 -17 22 -6 20 -2 -14 29 -50 46 -97 58 -189 50 -63 -5 -81
-3 -141 20 -37 14 -72 26 -77 26 -5 0 -2 -14 6 -30z"/>
<path d="M2190 1994 c-49 -22 -65 -24 -138 -19 -101 6 -149 -6 -200 -52 -33
-31 -34 -34 -12 -28 97 26 122 29 165 17 57 -15 140 -15 168 -1 33 17 67 51
83 82 18 34 9 34 -66 1z"/>
<path d="M1966 781 c-154 -539 -176 -625 -164 -637 8 -8 21 -12 29 -9 11 4 61
192 168 625 84 340 151 625 149 631 -2 7 -84 -268 -182 -610z"/>
<path d="M1180 1244 c0 -19 460 -1188 474 -1202 15 -16 46 -5 46 15 0 14 -475
1114 -506 1173 -7 14 -13 20 -14 14z"/>
<path d="M86 1183 c-54 -4 -58 -6 -52 -26 3 -12 6 -264 6 -559 l0 -538 430 0
c423 0 430 0 430 20 0 20 -7 20 -405 20 l-405 0 0 250 0 250 357 2 c332 3 358
4 361 20 3 17 -19 18 -357 18 l-361 0 0 255 0 255 390 0 c377 0 390 1 390 19
0 19 -12 19 -362 18 -200 0 -389 -2 -422 -4z"/>
<path d="M2568 663 c-119 -291 -224 -545 -232 -566 -16 -37 -16 -37 7 -37 21
0 32 22 113 223 l90 222 262 3 262 2 23 -52 c13 -29 55 -131 93 -225 61 -153
72 -173 92 -173 21 0 22 1 9 32 -8 18 -112 273 -232 566 -209 509 -220 532
-244 532 -25 0 -36 -23 -243 -527z m361 191 c62 -152 116 -285 118 -295 5 -18
-4 -19 -237 -19 -242 0 -242 0 -237 21 10 37 232 569 237 569 3 0 57 -124 119
-276z"/>
</g>
</svg>
